<svg xmlns="http://www.w3.org/2000/svg" viewBox="0 0 512 512">
  <rect width="512" height="512" rx="112" fill="#1F7A6B"/>
  <g transform="translate(96 96) scale(13.333)" fill="none" stroke-linecap="round" stroke-linejoin="round" stroke-width="1.6">
    <path d="M12 7v14" stroke="#FFFFFF"/>
    <path d="M3 18a1 1 0 0 1-1-1V4a1 1 0 0 1 1-1h5a4 4 0 0 1 4 4 4 4 0 0 1 4-4h5a1 1 0 0 1 1 1v13a1 1 0 0 1-1 1h-6a3 3 0 0 0-3 3 3 3 0 0 0-3-3z" stroke="#FFFFFF"/>
    <path d="m15.5 10 1.5 1.5 3-3" stroke="#D9A651" stroke-width="2"/>
  </g>
</svg>
